<mxfile host="Electron" agent="Mozilla/5.0 (Windows NT 10.0; Win64; x64) AppleWebKit/537.36 (KHTML, like Gecko) draw.io/24.7.8 Chrome/128.0.6613.36 Electron/32.0.1 Safari/537.36" version="24.7.8">
  <diagram name="Page-1" id="-c6Ry725GxhYZqOuj7hc">
    <mxGraphModel dx="794" dy="519" grid="1" gridSize="10" guides="1" tooltips="1" connect="1" arrows="1" fold="1" page="1" pageScale="1" pageWidth="850" pageHeight="1100" math="0" shadow="0">
      <root>
        <mxCell id="0" />
        <mxCell id="1" parent="0" />
        <mxCell id="g0l_ifj-5Xz2NjAmxus5-114" value="" style="rounded=0;whiteSpace=wrap;html=1;connectable=0;fillColor=#d5e8d4;strokeColor=#82b366;labelBackgroundColor=none;" parent="1" vertex="1">
          <mxGeometry x="520" y="1420" width="720" height="180" as="geometry" />
        </mxCell>
        <mxCell id="g0l_ifj-5Xz2NjAmxus5-115" value="0x4000 0000 - 0xBFFF FFFF" style="text;html=1;align=center;verticalAlign=middle;resizable=0;points=[];autosize=1;strokeColor=none;fillColor=none;connectable=0;labelBackgroundColor=none;" parent="1" vertex="1">
          <mxGeometry x="600" y="1420" width="180" height="30" as="geometry" />
        </mxCell>
        <mxCell id="g0l_ifj-5Xz2NjAmxus5-117" value="" style="rounded=0;whiteSpace=wrap;html=1;connectable=0;fillColor=#dae8fc;strokeColor=#6c8ebf;labelBackgroundColor=none;" parent="1" vertex="1">
          <mxGeometry x="520" y="1100" width="720" height="190" as="geometry" />
        </mxCell>
        <mxCell id="g0l_ifj-5Xz2NjAmxus5-120" value="&lt;br&gt;&lt;div style=&quot;forced-color-adjust: none; color: rgb(0, 0, 0); font-family: Helvetica; font-size: 12px; font-style: normal; font-variant-ligatures: normal; font-variant-caps: normal; font-weight: 400; letter-spacing: normal; orphans: 2; text-align: center; text-indent: 0px; text-transform: none; widows: 2; word-spacing: 0px; -webkit-text-stroke-width: 0px; white-space: normal; text-decoration-thickness: initial; text-decoration-style: initial; text-decoration-color: initial;&quot;&gt;SD Card 16 Gb&lt;/div&gt;&lt;div&gt;&lt;br&gt;&lt;/div&gt;" style="text;html=1;align=center;verticalAlign=middle;whiteSpace=wrap;rounded=0;connectable=0;labelBackgroundColor=none;" parent="1" vertex="1">
          <mxGeometry x="520" y="1100" width="100" height="30" as="geometry" />
        </mxCell>
        <mxCell id="g0l_ifj-5Xz2NjAmxus5-123" value="&lt;div style=&quot;forced-color-adjust: none; color: rgb(0, 0, 0); font-family: Helvetica; font-size: 12px; font-style: normal; font-variant-ligatures: normal; font-variant-caps: normal; font-weight: 400; letter-spacing: normal; orphans: 2; text-align: center; text-indent: 0px; text-transform: none; widows: 2; word-spacing: 0px; -webkit-text-stroke-width: 0px; white-space: normal; text-decoration-thickness: initial; text-decoration-style: initial; text-decoration-color: initial;&quot;&gt;DRAM 2 Gb&lt;/div&gt;" style="text;whiteSpace=wrap;html=1;labelBackgroundColor=none;" parent="1" vertex="1">
          <mxGeometry x="530" y="1420" width="70" height="30" as="geometry" />
        </mxCell>
        <mxCell id="g0l_ifj-5Xz2NjAmxus5-124" value="100MiB - 2GiB" style="text;whiteSpace=wrap;align=center;labelBackgroundColor=none;" parent="1" vertex="1">
          <mxGeometry x="1050" y="1240" width="100" height="30" as="geometry" />
        </mxCell>
        <mxCell id="g0l_ifj-5Xz2NjAmxus5-125" value="&lt;div&gt;&lt;span style=&quot;forced-color-adjust: none; color: rgb(0, 0, 0); font-family: Helvetica; font-size: 12px; font-style: normal; font-variant-ligatures: normal; font-variant-caps: normal; font-weight: 400; letter-spacing: normal; orphans: 2; text-indent: 0px; text-transform: none; widows: 2; word-spacing: 0px; -webkit-text-stroke-width: 0px; white-space: normal; text-decoration-thickness: initial; text-decoration-style: initial; text-decoration-color: initial; float: none; display: inline !important;&quot;&gt;40MiB - 100MiB&lt;/span&gt;&lt;br style=&quot;forced-color-adjust: none; color: rgb(0, 0, 0); font-family: Helvetica; font-size: 12px; font-style: normal; font-variant-ligatures: normal; font-variant-caps: normal; font-weight: 400; letter-spacing: normal; orphans: 2; text-indent: 0px; text-transform: none; widows: 2; word-spacing: 0px; -webkit-text-stroke-width: 0px; white-space: normal; text-decoration-thickness: initial; text-decoration-style: initial; text-decoration-color: initial;&quot;&gt;&lt;/div&gt;" style="text;whiteSpace=wrap;html=1;align=center;labelBackgroundColor=none;" parent="1" vertex="1">
          <mxGeometry x="920" y="1240" width="90" height="30" as="geometry" />
        </mxCell>
        <mxCell id="g0l_ifj-5Xz2NjAmxus5-126" value="&lt;div&gt;&lt;br&gt;&lt;/div&gt;" style="rounded=0;whiteSpace=wrap;html=1;labelBackgroundColor=none;" parent="1" vertex="1">
          <mxGeometry x="920" y="1140" width="130" height="100" as="geometry" />
        </mxCell>
        <mxCell id="g0l_ifj-5Xz2NjAmxus5-127" value="" style="rounded=0;whiteSpace=wrap;html=1;labelBackgroundColor=none;" parent="1" vertex="1">
          <mxGeometry x="1060" y="1140" width="130" height="100" as="geometry" />
        </mxCell>
        <UserObject label="&lt;span style=&quot;color: rgb(0, 0, 0); font-family: Helvetica; font-size: 12px; font-style: normal; font-variant-ligatures: normal; font-variant-caps: normal; font-weight: 400; letter-spacing: normal; orphans: 2; text-indent: 0px; text-transform: none; widows: 2; word-spacing: 0px; -webkit-text-stroke-width: 0px; white-space: normal; text-decoration-thickness: initial; text-decoration-style: initial; text-decoration-color: initial; float: none; display: inline !important;&quot;&gt;/boot&lt;/span&gt;&lt;div&gt;&lt;span style=&quot;color: rgb(0, 0, 0); font-family: Helvetica; font-size: 12px; font-style: normal; font-variant-ligatures: normal; font-variant-caps: normal; font-weight: 400; letter-spacing: normal; orphans: 2; text-indent: 0px; text-transform: none; widows: 2; word-spacing: 0px; -webkit-text-stroke-width: 0px; white-space: normal; text-decoration-thickness: initial; text-decoration-style: initial; text-decoration-color: initial; float: none; display: inline !important;&quot;&gt;&lt;br&gt;&lt;/span&gt;&lt;/div&gt;&lt;div&gt;&lt;span style=&quot;color: rgb(0, 0, 0); font-family: Helvetica; font-size: 12px; font-style: normal; font-variant-ligatures: normal; font-variant-caps: normal; font-weight: 400; letter-spacing: normal; orphans: 2; text-indent: 0px; text-transform: none; widows: 2; word-spacing: 0px; -webkit-text-stroke-width: 0px; white-space: normal; text-decoration-thickness: initial; text-decoration-style: initial; text-decoration-color: initial; float: none; display: inline !important;&quot;&gt;Image.gz&lt;/span&gt;&lt;div style=&quot;forced-color-adjust: none; color: rgb(0, 0, 0); font-family: Helvetica; font-size: 12px; font-style: normal; font-variant-ligatures: normal; font-variant-caps: normal; font-weight: 400; letter-spacing: normal; orphans: 2; text-indent: 0px; text-transform: none; widows: 2; word-spacing: 0px; -webkit-text-stroke-width: 0px; white-space: normal; text-decoration-thickness: initial; text-decoration-style: initial; text-decoration-color: initial;&quot;&gt;boot.scr&lt;/div&gt;&lt;/div&gt;" id="g0l_ifj-5Xz2NjAmxus5-131">
          <mxCell style="text;whiteSpace=wrap;html=1;align=left;labelBackgroundColor=none;" parent="1" vertex="1">
            <mxGeometry x="925" y="1140" width="80" height="70" as="geometry" />
          </mxCell>
        </UserObject>
        <mxCell id="g0l_ifj-5Xz2NjAmxus5-132" value="rootfs&lt;br class=&quot;Apple-interchange-newline&quot;&gt;&lt;span style=&quot;color: rgb(0, 0, 0); font-family: Helvetica; font-size: 12px; font-style: normal; font-variant-ligatures: normal; font-variant-caps: normal; font-weight: 400; letter-spacing: normal; orphans: 2; text-indent: 0px; text-transform: none; widows: 2; word-spacing: 0px; -webkit-text-stroke-width: 0px; white-space: normal; text-decoration-thickness: initial; text-decoration-style: initial; text-decoration-color: initial; float: none; display: inline !important;&quot;&gt;&lt;br&gt;&lt;/span&gt;&lt;div&gt;&lt;span style=&quot;color: rgb(0, 0, 0); font-family: Helvetica; font-size: 12px; font-style: normal; font-variant-ligatures: normal; font-variant-caps: normal; font-weight: 400; letter-spacing: normal; orphans: 2; text-indent: 0px; text-transform: none; widows: 2; word-spacing: 0px; -webkit-text-stroke-width: 0px; white-space: normal; text-decoration-thickness: initial; text-decoration-style: initial; text-decoration-color: initial; float: none; display: inline !important;&quot;&gt;/bin&lt;/span&gt;&lt;div style=&quot;forced-color-adjust: none; color: rgb(0, 0, 0); font-family: Helvetica; font-size: 12px; font-style: normal; font-variant-ligatures: normal; font-variant-caps: normal; font-weight: 400; letter-spacing: normal; orphans: 2; text-indent: 0px; text-transform: none; widows: 2; word-spacing: 0px; -webkit-text-stroke-width: 0px; white-space: normal; text-decoration-thickness: initial; text-decoration-style: initial; text-decoration-color: initial;&quot;&gt;/etc&lt;/div&gt;&lt;div style=&quot;forced-color-adjust: none; color: rgb(0, 0, 0); font-family: Helvetica; font-size: 12px; font-style: normal; font-variant-ligatures: normal; font-variant-caps: normal; font-weight: 400; letter-spacing: normal; orphans: 2; text-indent: 0px; text-transform: none; widows: 2; word-spacing: 0px; -webkit-text-stroke-width: 0px; white-space: normal; text-decoration-thickness: initial; text-decoration-style: initial; text-decoration-color: initial;&quot;&gt;/home&lt;/div&gt;&lt;div style=&quot;forced-color-adjust: none; color: rgb(0, 0, 0); font-family: Helvetica; font-size: 12px; font-style: normal; font-variant-ligatures: normal; font-variant-caps: normal; font-weight: 400; letter-spacing: normal; orphans: 2; text-indent: 0px; text-transform: none; widows: 2; word-spacing: 0px; -webkit-text-stroke-width: 0px; white-space: normal; text-decoration-thickness: initial; text-decoration-style: initial; text-decoration-color: initial;&quot;&gt;...&lt;/div&gt;&lt;/div&gt;" style="text;whiteSpace=wrap;html=1;align=left;labelBackgroundColor=none;" parent="1" vertex="1">
          <mxGeometry x="1070" y="1140" width="70" height="100" as="geometry" />
        </mxCell>
        <mxCell id="g0l_ifj-5Xz2NjAmxus5-137" value="3. SBI and U-BOOT" style="text;html=1;align=center;verticalAlign=middle;whiteSpace=wrap;rounded=0;fontSize=24;labelBackgroundColor=none;" parent="1" vertex="1">
          <mxGeometry x="348" y="1040" width="260" height="30" as="geometry" />
        </mxCell>
        <mxCell id="g0l_ifj-5Xz2NjAmxus5-142" value="" style="rounded=0;whiteSpace=wrap;html=1;connectable=0;labelBackgroundColor=none;" parent="1" vertex="1">
          <mxGeometry x="538" y="1460" width="182" height="100" as="geometry" />
        </mxCell>
        <mxCell id="g0l_ifj-5Xz2NjAmxus5-143" value="&lt;span style=&quot;color: rgb(0, 0, 0); font-family: Helvetica; font-size: 12px; font-style: normal; font-variant-ligatures: normal; font-variant-caps: normal; font-weight: 400; letter-spacing: normal; orphans: 2; text-align: center; text-indent: 0px; text-transform: none; widows: 2; word-spacing: 0px; -webkit-text-stroke-width: 0px; white-space: normal; text-decoration-thickness: initial; text-decoration-style: initial; text-decoration-color: initial; float: none; display: inline !important;&quot;&gt;0x40000000&lt;/span&gt;" style="text;whiteSpace=wrap;html=1;labelBackgroundColor=none;" parent="1" vertex="1">
          <mxGeometry x="538" y="1560" width="100" height="30" as="geometry" />
        </mxCell>
        <UserObject label="&lt;div style=&quot;forced-color-adjust: none; color: rgb(0, 0, 0); font-family: Helvetica; font-size: 12px; font-style: normal; font-variant-ligatures: normal; font-variant-caps: normal; font-weight: 400; letter-spacing: normal; orphans: 2; text-align: left; text-indent: 0px; text-transform: none; widows: 2; word-spacing: 0px; -webkit-text-stroke-width: 0px; white-space: normal; text-decoration-thickness: initial; text-decoration-style: initial; text-decoration-color: initial;&quot;&gt;OpenSBI:&amp;nbsp;&lt;/div&gt;&lt;div style=&quot;forced-color-adjust: none; color: rgb(0, 0, 0); font-family: Helvetica; font-size: 12px; font-style: normal; font-variant-ligatures: normal; font-variant-caps: normal; font-weight: 400; letter-spacing: normal; orphans: 2; text-align: left; text-indent: 0px; text-transform: none; widows: 2; word-spacing: 0px; -webkit-text-stroke-width: 0px; white-space: normal; text-decoration-thickness: initial; text-decoration-style: initial; text-decoration-color: initial;&quot;&gt;fw_dynamic.bin&lt;/div&gt;" id="g0l_ifj-5Xz2NjAmxus5-144">
          <mxCell style="text;whiteSpace=wrap;html=1;labelBackgroundColor=none;" parent="1" vertex="1">
            <mxGeometry x="538" y="1460" width="152" height="30" as="geometry" />
          </mxCell>
        </UserObject>
        <mxCell id="g0l_ifj-5Xz2NjAmxus5-145" value="" style="rounded=0;whiteSpace=wrap;html=1;connectable=0;labelBackgroundColor=none;" parent="1" vertex="1">
          <mxGeometry x="728" y="1460" width="192" height="100" as="geometry" />
        </mxCell>
        <UserObject label="&lt;div style=&quot;forced-color-adjust: none; color: rgb(0, 0, 0); font-family: Helvetica; font-size: 12px; font-style: normal; font-variant-ligatures: normal; font-variant-caps: normal; font-weight: 400; letter-spacing: normal; orphans: 2; text-align: left; text-indent: 0px; text-transform: none; widows: 2; word-spacing: 0px; -webkit-text-stroke-width: 0px; white-space: normal; text-decoration-thickness: initial; text-decoration-style: initial; text-decoration-color: initial;&quot;&gt;dtb:&amp;nbsp;&lt;/div&gt;&lt;div style=&quot;forced-color-adjust: none; color: rgb(0, 0, 0); font-family: Helvetica; font-size: 12px; font-style: normal; font-variant-ligatures: normal; font-variant-caps: normal; font-weight: 400; letter-spacing: normal; orphans: 2; text-align: left; text-indent: 0px; text-transform: none; widows: 2; word-spacing: 0px; -webkit-text-stroke-width: 0px; white-space: normal; text-decoration-thickness: initial; text-decoration-style: initial; text-decoration-color: initial;&quot;&gt;sun20i-d1-lichee-rv-dock.dtb&lt;/div&gt;" id="g0l_ifj-5Xz2NjAmxus5-146">
          <mxCell style="text;whiteSpace=wrap;html=1;labelBackgroundColor=none;" parent="1" vertex="1">
            <mxGeometry x="730" y="1460" width="182" height="30" as="geometry" />
          </mxCell>
        </UserObject>
        <mxCell id="g0l_ifj-5Xz2NjAmxus5-147" value="" style="rounded=0;whiteSpace=wrap;html=1;connectable=0;labelBackgroundColor=none;" parent="1" vertex="1">
          <mxGeometry x="930" y="1460" width="140" height="100" as="geometry" />
        </mxCell>
        <UserObject label="&lt;span style=&quot;color: rgb(0, 0, 0); font-family: Helvetica; font-size: 12px; font-style: normal; font-variant-ligatures: normal; font-variant-caps: normal; font-weight: 400; letter-spacing: normal; orphans: 2; text-align: left; text-indent: 0px; text-transform: none; widows: 2; word-spacing: 0px; -webkit-text-stroke-width: 0px; white-space: normal; text-decoration-thickness: initial; text-decoration-style: initial; text-decoration-color: initial; float: none; display: inline !important;&quot;&gt;u-boot:&amp;nbsp;&lt;/span&gt;&lt;div&gt;&lt;span style=&quot;color: rgb(0, 0, 0); font-family: Helvetica; font-size: 12px; font-style: normal; font-variant-ligatures: normal; font-variant-caps: normal; font-weight: 400; letter-spacing: normal; orphans: 2; text-align: left; text-indent: 0px; text-transform: none; widows: 2; word-spacing: 0px; -webkit-text-stroke-width: 0px; white-space: normal; text-decoration-thickness: initial; text-decoration-style: initial; text-decoration-color: initial; float: none; display: inline !important;&quot;&gt;u-boot-nodtb.bin&lt;/span&gt;&lt;/div&gt;" id="g0l_ifj-5Xz2NjAmxus5-148">
          <mxCell style="text;whiteSpace=wrap;html=1;labelBackgroundColor=none;" parent="1" vertex="1">
            <mxGeometry x="930" y="1460" width="140" height="30" as="geometry" />
          </mxCell>
        </UserObject>
        <mxCell id="g0l_ifj-5Xz2NjAmxus5-149" value="&lt;span style=&quot;color: rgb(0, 0, 0); font-family: Helvetica; font-size: 12px; font-style: normal; font-variant-ligatures: normal; font-variant-caps: normal; font-weight: 400; letter-spacing: normal; orphans: 2; text-align: center; text-indent: 0px; text-transform: none; widows: 2; word-spacing: 0px; -webkit-text-stroke-width: 0px; white-space: normal; text-decoration-thickness: initial; text-decoration-style: initial; text-decoration-color: initial; float: none; display: inline !important;&quot;&gt;0x44000000&lt;/span&gt;" style="text;whiteSpace=wrap;html=1;labelBackgroundColor=none;" parent="1" vertex="1">
          <mxGeometry x="728" y="1560" width="100" height="20" as="geometry" />
        </mxCell>
        <mxCell id="g0l_ifj-5Xz2NjAmxus5-150" value="&lt;span style=&quot;color: rgb(0, 0, 0); font-family: Helvetica; font-size: 12px; font-style: normal; font-variant-ligatures: normal; font-variant-caps: normal; font-weight: 400; letter-spacing: normal; orphans: 2; text-align: center; text-indent: 0px; text-transform: none; widows: 2; word-spacing: 0px; -webkit-text-stroke-width: 0px; white-space: normal; text-decoration-thickness: initial; text-decoration-style: initial; text-decoration-color: initial; float: none; display: inline !important;&quot;&gt;0x4a000000&lt;/span&gt;" style="text;whiteSpace=wrap;html=1;labelBackgroundColor=none;" parent="1" vertex="1">
          <mxGeometry x="930" y="1560" width="80" height="30" as="geometry" />
        </mxCell>
        <mxCell id="g0l_ifj-5Xz2NjAmxus5-155" value="" style="endArrow=classic;html=1;rounded=0;labelBackgroundColor=none;" parent="1" edge="1">
          <mxGeometry width="50" height="50" relative="1" as="geometry">
            <mxPoint x="400" y="1510" as="sourcePoint" />
            <mxPoint x="540" y="1510" as="targetPoint" />
          </mxGeometry>
        </mxCell>
        <mxCell id="g0l_ifj-5Xz2NjAmxus5-156" value="7" style="ellipse;whiteSpace=wrap;html=1;aspect=fixed;fontStyle=1;connectable=0;labelBackgroundColor=none;" parent="1" vertex="1">
          <mxGeometry x="370" y="1495" width="30" height="30" as="geometry" />
        </mxCell>
        <mxCell id="g0l_ifj-5Xz2NjAmxus5-157" value="" style="endArrow=classic;html=1;rounded=0;labelBackgroundColor=none;" parent="1" edge="1">
          <mxGeometry width="50" height="50" relative="1" as="geometry">
            <mxPoint x="638" y="1509.29" as="sourcePoint" />
            <mxPoint x="778" y="1509.29" as="targetPoint" />
          </mxGeometry>
        </mxCell>
        <mxCell id="g0l_ifj-5Xz2NjAmxus5-158" value="" style="endArrow=classic;html=1;rounded=0;labelBackgroundColor=none;" parent="1" edge="1">
          <mxGeometry width="50" height="50" relative="1" as="geometry">
            <mxPoint x="850" y="1509.29" as="sourcePoint" />
            <mxPoint x="990" y="1509.29" as="targetPoint" />
          </mxGeometry>
        </mxCell>
        <mxCell id="g0l_ifj-5Xz2NjAmxus5-159" value="8" style="ellipse;whiteSpace=wrap;html=1;aspect=fixed;fontStyle=1;connectable=0;labelBackgroundColor=none;" parent="1" vertex="1">
          <mxGeometry x="608" y="1495" width="30" height="30" as="geometry" />
        </mxCell>
        <mxCell id="g0l_ifj-5Xz2NjAmxus5-160" value="9" style="ellipse;whiteSpace=wrap;html=1;aspect=fixed;fontStyle=1;connectable=0;labelBackgroundColor=none;" parent="1" vertex="1">
          <mxGeometry x="820" y="1495" width="30" height="30" as="geometry" />
        </mxCell>
        <mxCell id="g0l_ifj-5Xz2NjAmxus5-161" value="" style="endArrow=classic;html=1;rounded=0;exitX=0.099;exitY=0.071;exitDx=0;exitDy=0;exitPerimeter=0;entryX=0.25;entryY=1;entryDx=0;entryDy=0;labelBackgroundColor=none;" parent="1" source="g0l_ifj-5Xz2NjAmxus5-148" target="g0l_ifj-5Xz2NjAmxus5-125" edge="1">
          <mxGeometry width="50" height="50" relative="1" as="geometry">
            <mxPoint x="900" y="1350" as="sourcePoint" />
            <mxPoint x="1040" y="1350" as="targetPoint" />
          </mxGeometry>
        </mxCell>
        <mxCell id="g0l_ifj-5Xz2NjAmxus5-162" value="10" style="ellipse;whiteSpace=wrap;html=1;aspect=fixed;fontStyle=1;connectable=0;labelBackgroundColor=none;" parent="1" vertex="1">
          <mxGeometry x="928" y="1341" width="30" height="30" as="geometry" />
        </mxCell>
        <UserObject label="&#xa;&lt;span style=&quot;forced-color-adjust: none; color: rgb(0, 0, 0); font-family: Helvetica; font-size: 12px; font-style: normal; font-variant-ligatures: normal; font-variant-caps: normal; font-weight: 400; letter-spacing: normal; orphans: 2; text-align: left; text-indent: 0px; text-transform: none; widows: 2; word-spacing: 0px; -webkit-text-stroke-width: 0px; white-space: normal; text-decoration-thickness: initial; text-decoration-style: initial; text-decoration-color: initial; float: none; display: inline !important;&quot;&gt;Image.gz&lt;/span&gt;&lt;br class=&quot;Apple-interchange-newline&quot;&gt;&#xa;&#xa;" id="g0l_ifj-5Xz2NjAmxus5-163">
          <mxCell style="rounded=0;whiteSpace=wrap;html=1;labelBackgroundColor=none;" parent="1" vertex="1">
            <mxGeometry x="1080" y="1460" width="130" height="100" as="geometry" />
          </mxCell>
        </UserObject>
        <mxCell id="g0l_ifj-5Xz2NjAmxus5-164" value="" style="endArrow=classic;html=1;rounded=0;exitX=0.75;exitY=1;exitDx=0;exitDy=0;entryX=0.109;entryY=0.002;entryDx=0;entryDy=0;entryPerimeter=0;labelBackgroundColor=none;" parent="1" source="g0l_ifj-5Xz2NjAmxus5-125" target="g0l_ifj-5Xz2NjAmxus5-163" edge="1">
          <mxGeometry width="50" height="50" relative="1" as="geometry">
            <mxPoint x="1161" y="1482" as="sourcePoint" />
            <mxPoint x="1160" y="1290" as="targetPoint" />
            <Array as="points">
              <mxPoint x="988" y="1370" />
              <mxPoint x="1094" y="1370" />
            </Array>
          </mxGeometry>
        </mxCell>
        <mxCell id="g0l_ifj-5Xz2NjAmxus5-165" value="11" style="ellipse;whiteSpace=wrap;html=1;aspect=fixed;fontStyle=1;connectable=0;labelBackgroundColor=none;" parent="1" vertex="1">
          <mxGeometry x="1020" y="1354" width="30" height="30" as="geometry" />
        </mxCell>
      </root>
    </mxGraphModel>
  </diagram>
</mxfile>
